File Name

Perriers Bounty BRRip H264.mp4

File Size
Format : MPEG-4
Format profile : Base Media
Codec ID : isom
File size : 1.58 GiB
Duration : 1h 27mn
Overall bit rate : 2 578 Kbps

Video
ID : 1
Format : AVC
Format/Info : Advanced Video Codec
Format profile : High@L4.1
Format settings, CABAC : Yes
Format settings, ReFrames : 3 frames
Codec ID : avc1
Codec ID/Info : Advanced Video Coding
Duration : 1h 27mn
Bit rate mode : Variable
Bit rate : 1 999 Kbps
Maximum bit rate : 10.3 Mbps
Width : 1 280 pixels
Height : 536 pixels
Display aspect ratio : 2.35:1
Frame rate mode : Constant
Frame rate : 23.976 fps
Resolution : 24 bits
Colorimetry : 4:2:0
Scan type : Progressive
Bits/(Pixel*Frame) : 0.122
Stream size : 1.22 GiB (77%)

Audio #1
ID : 2
Format : AAC
Format/Info : Advanced Audio Codec
Format version : Version 4
Format profile : LC
Format settings, SBR : No
Codec ID : 40
Duration : 1h 27mn
Bit rate mode : Variable
Bit rate : 128 Kbps
Maximum bit rate : 138 Kbps
Channel(s) : 2 channels
Channel positions : L R
Sampling rate : 48.0 KHz
Resolution : 16 bits
Stream size : 80.2 MiB (5%)

Audio #2
ID : 3
Format : AAC
Format/Info : Advanced Audio Codec
Format version : Version 4
Format profile : LC
Format settings, SBR : No
Codec ID : 40
Duration : 1h 27mn
Bit rate mode : Variable
Bit rate : 448 Kbps
Maximum bit rate : 467 Kbps
Channel(s) : 6 channels
Channel positions : Front: L C R, Rear: L R, LFE
Sampling rate : 48.0 KHz
Resolution : 16 bits
Stream size : 280 MiB (17%)

English SRT : ----

Language : English

 
http://www.imdb.com/title/tt1003034/

Release Date: 14 May 2010 (USA) 

Genre: Comedy | Crime | Drama 

Plot: A gangster named Perrier looks to exact his revenge on a trio of fugitives responsible for the accidental death of one of his cronies.

Cast: 
Cillian Murphy ... Michael McCrea
Brendan Gleeson ... Darren Perrier
Gabriel Byrne ... Voice of the Grim Reaper
Jim Broadbent ... Jim McCrea
Domhnall Gleeson ... Clifford
Jodie Whittaker ... Brenda
Padraic Delaney ... Shamie
Andrew Simpson ... 26 Teen 2
Natalie Britton ... Catherine
Conleth Hill 
Michael FitzGerald ... Garda
Chris Newman ... Teen Joyrider
Rick Crawford ... King Bill
Guðmundur Auðunsson ... Gang Member / Dog Handler
Brendan Dempsey ... Victor
Daniel Parker ... Gang Member & Dog Handler
John Banks ... Dog Handler
Wuzza Conlon ... Blaise
Chantal Dias ... Young Gangster
Roarke Alexander ... Gang Member / Dog Handler
Tony Jeeves ... Dog Handler
Glenn Speers ... Lar - clamper 2
Shane Flanagan ... Dog Handler
Marco Amaral ... Dog Handler / Gang Member



Screenshots
 
http://postimg.com/image/18000/17974.jpg
 
http://postimg.com/image/18000/17975.jpg
 
http://postimg.com/image/18000/17976.jpg